<svg xmlns="http://www.w3.org/2000/svg" width="265.8" height="30.1"><defs><style>.cls-1{fill:#253881}</style></defs><g id="Capa_1"><g id="Capa_1-2" data-name="Capa_1"><path d="M52.9 2.7h3.4v24.6h-3.4V2.7Zm26.9 19.7L66.9 2.7h-4.5v24.6h3.4V7.2l13 20.1h4.3V2.7h-3.5v19.7Zm6.7-16.7h7.9v21.6h3.4V5.7h7.9v-3H86.5v3Zm26 10.3h11.6v-2.9h-11.6V5.7h12.3v-3h-15.7v24.6h16.3v-3h-12.9V16Zm32.4-2.1c1.1-1.1 1.7-2.6 1.7-4.3s-.3-2.3-.7-3.2c-.5-.8-1.1-1.6-1.9-2.1-.8-.5-1.8-.9-2.8-1.2s-2.2-.3-3.3-.3H130v24.6h3.4v-11h3.7l6.3 11h4.2l-6.9-11.3c1.8-.3 3.2-1 4.3-2.1h-.2Zm-7.6-.4h-3.9V5.6h4.2c.8 0 1.4 0 2.1.2.7.2 1.3.3 1.8.7s.9.7 1.2 1.2c.3.5.4 1.1.4 1.8s-.2 1.3-.4 1.8c-.3.5-.8.9-1.3 1.3s-1.2.5-1.8.7-1.4.2-2.3.2Zm13.5 14h4.9V17.1h10.8v-4.2h-10.8V6.6h11.5V2.5h-16.3v25.1Zm24.7-25h-4.9v25.1h15.3v-4.3h-10.5V2.5Zm33.4 3.3c-1.2-1.1-2.5-1.9-4.1-2.5-1.6-.5-3.3-.8-5.2-.8s-3.5.3-5.1.8c-1.6.6-2.9 1.4-4 2.5-1.2 1.1-2 2.4-2.7 3.9-.7 1.5-.9 3.3-.9 5.2s.3 3.6.9 5.1c.7 1.5 1.5 2.8 2.7 4 1.2 1.1 2.5 2 4 2.6 1.6.6 3.3.9 5.1.9s3.6-.3 5.2-.9 2.9-1.5 4.1-2.6c1.2-1.1 2-2.4 2.7-4 .7-1.5.9-3.3.9-5.1s-.3-3.6-.9-5.2c-.7-1.5-1.5-2.8-2.7-3.9Zm-9.2 17.6c-1.2 0-2.3-.3-3.2-.7s-1.8-1-2.5-1.8-1.3-1.7-1.6-2.7-.6-2.2-.6-3.3.2-2.3.6-3.3c.3-1 .9-1.9 1.6-2.7.7-.8 1.5-1.3 2.4-1.8.9-.4 2-.7 3.2-.7s2.3.3 3.3.7 1.8 1 2.5 1.8 1.3 1.7 1.6 2.7.6 2.1.6 3.3-.2 2.3-.6 3.3c-.3 1-.9 1.9-1.6 2.7-.7.8-1.5 1.3-2.5 1.8s-2 .7-3.2.7Zm38.7-17.6c-1.2-1.1-2.5-1.9-4.1-2.5-1.6-.5-3.3-.8-5.2-.8s-3.5.3-5.1.8c-1.6.6-2.9 1.4-4 2.5-1.2 1.1-2 2.4-2.7 3.9-.7 1.5-.9 3.3-.9 5.2s.3 3.6.9 5.1c.7 1.5 1.5 2.8 2.7 4 1.2 1.1 2.5 2 4 2.6 1.6.6 3.3.9 5.1.9s3.6-.3 5.2-.9c1.6-.6 2.9-1.5 4.1-2.6 1.2-1.1 2-2.4 2.7-4 .7-1.5.9-3.3.9-5.1s-.3-3.7-.9-5.2c-.7-1.5-1.5-2.8-2.7-3.9Zm-9.2 17.6c-1.2 0-2.3-.3-3.2-.7-.9-.4-1.8-1-2.5-1.8s-1.3-1.7-1.6-2.7-.6-2.2-.6-3.4.2-2.3.6-3.3c.3-1 .9-1.9 1.6-2.7.7-.8 1.5-1.3 2.4-1.8s2-.7 3.2-.7 2.3.3 3.3.7c1 .4 1.8 1 2.5 1.8s1.3 1.7 1.6 2.7.6 2.1.6 3.3-.2 2.3-.6 3.4c-.3 1-.9 1.9-1.6 2.7-.7.8-1.5 1.3-2.5 1.8s-2 .7-3.2.7Zm29.9-6.9c1.7-.4 2.9-1.2 3.9-2.3 1-1.2 1.6-2.7 1.6-4.5s-.3-2.5-.8-3.4-1.3-1.7-2.1-2.3-1.8-1-3-1.3c-1.1-.3-2.3-.3-3.4-.3h-8.8v25.1h4.9V17h2.8l5.7 10.5h5.9l-6.6-11Zm-7.8-9.9h3.8c.5 0 1.1 0 1.7.2.6 0 1.1.3 1.5.5s.8.6 1.1.9c.3.4.4.9.4 1.5s-.2 1.3-.4 1.7c-.3.4-.7.8-1.2 1s-1 .4-1.6.5c-.6 0-1.3.2-1.8.2h-3.3V6.7Z" class="cls-1"/><path d="M37.7 0H14.1c-1.7.2-2.7.8-3.8 1.4-1.4.9-3.6 2.5-4.8 3.4L0 9.2V30h6.5V17.6c0-3.7 0-4.6.2-6.4S7.6 7.7 9 6.5c1.4-1.2 2.9-1.7 5-1.8s3.2 0 4.7 1.5c2.4 2.2 2.2 6.3 2.2 12.7v11.2h6.8V13.8c0-4.6-.8-6.2-1.6-8.1s-.4-.9-.4-1h12V0Z" style="fill:#1b90cd"/><path d="M0 8.2V0h4.9v4.2L0 8.2Zm28.6 2.1h9.1v4.6h-9.1v-4.6Z" class="cls-1"/></g></g></svg>